inDegrees=yes
name=ik_lifting_orientations
DataType=double
version=3
OpenSimVersion=4.5-2024-01-10-34fd6af
endheader
time	pelvis_tilt	pelvis_list	pelvis_rotation	pelvis_tx	pelvis_ty	pelvis_tz	hip_flexion_r	hip_adduction_r	hip_rotation_r	knee_angle_r	knee_angle_r_beta	ankle_angle_r	subtalar_angle_r	mtp_angle_r	hip_flexion_l	hip_adduction_l	hip_rotation_l	knee_angle_l	knee_angle_l_beta	ankle_angle_l	subtalar_angle_l	mtp_angle_l	lumbar_extension	lumbar_bending	lumbar_rotation	arm_flex_r	arm_add_r	arm_rot_r	elbow_flex_r	pro_sup_r	wrist_flex_r	wrist_dev_r	arm_flex_l	arm_add_l	arm_rot_l	elbow_flex_l	pro_sup_l	wrist_flex_l	wrist_dev_l
1.47	-4.334686204613933	16.97599678808518	-79.72126518651916	0	0.9399999998679526	0	45.48466576992355	-10.14002711211492	0	60.79918244329576	1.061145916156242	-5.038463023569815	0	0	45.48466576992355	-10.14002711211492	0	60.79918244329576	1.061145916156242	-5.038463023569815	0	0	36.41409356111708	-0.5440655131658493	-8.767138033984361	-14.73046678297473	-26.70858508514652	-1.834584173538662	36.02172658947007	0.01468491385412356	0	0	0	-12.22983494193098	0	89.9977164260133	0.01468491385412356	0	0
1.48	-4.510352340951681	16.30188485539383	-79.24158450531536	0	0.9399999998679526	0	45.47796615061178	-10.13544377784935	0	60.7882221199345	1.060954622426504	-5.036965782489533	0	0	45.47796615061178	-10.13544377784935	0	60.7882221199345	1.060954622426504	-5.036965782489533	0	0	34.59525658577177	-0.4776720219000963	-9.524487947874315	-13.6528868376022	-27.94571480703439	-2.019137417121414	39.43176581381209	0.01452810544271212	0	0	0	-12.25317882106427	0	89.99773983771678	0.01452810544271212	0	0
1.49	-4.588169011820291	15.53481384482621	-78.93756259950077	0	0.9399999998679526	0	45.47174981612903	-10.13122444678947	0	60.7780942923695	1.060777858489421	-5.035591303710722	0	0	45.47174981612903	-10.13122444678947	0	60.7780942923695	1.060777858489421	-5.035591303710722	0	0	32.70809101855959	-0.2942779298886022	-9.909597865265066	-12.73788525131909	-29.21254369183385	-2.560573085443077	43.21952168812322	0.01438244155157881	0	0	0	-12.27487887534588	0	89.99776158552831	0.01438244155157881	0	0
1.5	-4.675167040526024	14.78739612083008	-78.59004168415026	0	0.9399999998679526	0	45.46600637457482	-10.1273544333059	0	60.76877392515231	1.060615187393986	-5.034334007870587	0	0	45.46600637457482	-10.1273544333059	0	60.76877392515231	1.060615187393986	-5.034334007870587	0	0	30.80218112408858	-0.1550988852019134	-10.3959981088366	-11.66000288371486	-30.54685582309918	-3.068625130657066	47.28611155511798	0.01424772246023218	0	0	0	-12.29496061138087	0	89.99778169926655	0.01424772246023218	0	0
1.51	-4.602989960852375	13.96760848738467	-78.54477690317447	0	0.9399999998679526	0	45.46079719894925	-10.12387809742246	0	60.76034174782701	1.060468018136548	-5.033208497147643	0	0	45.46079719894925	-10.12387809742246	0	60.76034174782701	1.060468018136548	-5.033208497147643	0	0	28.80355048251439	0.02395871563077041	-10.6187642126923	-10.50152517572339	-32.01261379357906	-3.62205596413496	51.96793836386614	0.0141253568643009	0	0	0	-12.31321784201176	0	89.9977999686114	0.0141253568643009	0	0
1.52	-4.372301095368564	13.10945041677859	-78.92108164872938	0	0.9399999998679526	0	45.45615709554295	-10.12082562835974	0	60.75282962231483	1.060336906812537	-5.03222496205673	0	0	45.45615709554295	-10.12082562835974	0	60.75282962231483	1.060336906812537	-5.03222496205673	0	0	26.84780102195225	0.2316879775646717	-10.45165604576463	-9.155121341127071	-33.31154882876011	-4.017429410420013	57.0448786257585	0.01401609504169482	0	0	0	-12.32954656071597	0	89.99781628154518	0.01401609504169482	0	0
1.53	-4.121087198815907	12.26046911780274	-79.28383215606767	0	0.9399999998679526	0	45.4517656278221	-10.11798348113254	0	60.74571057889835	1.060212656065327	-5.031314122347361	0	0	45.4517656278221	-10.11798348113254	0	60.74571057889835	1.060212656065327	-5.031314122347361	0	0	24.89802570620274	0.3691721589134753	-10.25061490513566	-7.534643127356495	-34.18065029243849	-4.157038816402327	61.82467231013023	0.0139123970557217	0	0	0	-12.34507345526575	0	89.99783176379043	0.0139123970557217	0	0
1.54	-3.84353852546466	11.31527960794502	-79.58076214367675	0	0.9399999998679526	0	45.44783708793927	-10.11548091562525	0	60.73933025561583	1.060101298416705	-5.030516179446024	0	0	45.44783708793927	-10.11548091562525	0	60.73933025561583	1.060101298416705	-5.030516179446024	0	0	22.88300406191316	0.4650671929302261	-10.13973837457174	-5.581267003719626	-34.81252965830862	-4.023439873180918	66.54057205249174	0.01381936777316818	0	0	0	-12.35903009302051	0	89.99784565318392	0.01381936777316818	0	0
1.55	-3.544670151560098	10.23039856947071	-79.91467676361843	0	0.9399999998679526	0	45.44755753445946	-10.11522920779716	0	60.73896799124832	1.06009497571073	-5.030429435907598	0	0	45.44755753445946	-10.11522920779716	0	60.73896799124832	1.06009497571073	-5.030429435907598	0	0	20.74848748095141	0.5628855518182431	-9.953761633430551	-3.595628183700069	-35.42768714127129	-3.346291602701525	66.42561201322964	0.01381332013374234	0	0	0	-12.35987469758599	0	89.99784655610526	0.01381332013374234	0	0
1.56	-3.203204599082158	9.083322912463819	-80.33476260134552	0	0.9399999998679526	0	45.44734561534339	-10.115038512592	0	60.73869351115962	1.060090185129451	-5.030363747331457	0	0	45.44734561534339	-10.115038512592	0	60.73869351115962	1.060090185129451	-5.030363747331457	0	0	18.6334755433211	0.63022988359161	-9.669092025596735	-1.701036400950438	-35.96401693279759	-3.146338655447622	69.26220511112682	0.01380873598629738	0	0	0	-12.36051484471849	0	89.99784724052512	0.01380873598629738	0	0
